# xmcd
#
# Track frame offsets: 
#        150
#        17065
#        28956
#        49216
#        71341
#        97434
#        120853
#        138357
#        154336
#        173960
#        194206
#
# Disc length: 2933 seconds
#
# Revision: 0
# Processed by: cddbd v1.4PL0 Copyright (c) Steve Scherf et al.
# Submitted via: ExactAudioCopy v0.90b4
#
DISCID=a20b730b
DTITLE=The Sundogs - Dancing Room Only
DYEAR=1998
DGENRE=Country
TTITLE0=Z Recipe
TTITLE1=Dancin' Fool
TTITLE2=Don't make me Laugh when I'm Cryin'
TTITLE3=Adeline Shuffle
TTITLE4=Jambalaya
TTITLE5=Little Red Rooster
TTITLE6=Hey, Little Dancer
TTITLE7=Treat me like a Dog
TTITLE8=La Porte en Arriere
TTITLE9=Sittin' on top of the World
TTITLE10=Cocodril Stomp
EXTD=
EXTT0=
EXTT1=
EXTT2=
EXTT3=
EXTT4=
EXTT5=
EXTT6=
EXTT7=
EXTT8=
EXTT9=
EXTT10=
PLAYORDER=
